<?xml version="1.0" encoding="UTF-8" standalone="no"?>
<!DOCTYPE svg PUBLIC "-//W3C//DTD SVG 1.1//EN" "http://www.w3.org/Graphics/SVG/1.1/DTD/svg11.dtd">
<svg width="100%" height="100%" viewBox="0 0 138 126" version="1.1" xmlns="http://www.w3.org/2000/svg" xmlns:xlink="http://www.w3.org/1999/xlink" xml:space="preserve" xmlns:serif="http://www.serif.com/" style="fill-rule:evenodd;clip-rule:evenodd;stroke-linejoin:round;stroke-miterlimit:2;">
    <g transform="matrix(1,0,0,1,4.80411,4.8055)">
        <g transform="matrix(1.03708,0,0,0.943734,-3.66298,-1.63939)">
            <path d="M119.963,20.905C119.963,14.842 115.484,9.92 109.967,9.92L20.109,9.92C14.592,9.92 10.113,14.842 10.113,20.905L10.113,108.785C10.113,114.848 14.592,119.77 20.109,119.77L109.967,119.77C115.484,119.77 119.963,114.848 119.963,108.785L119.963,20.905Z" style="fill:rgb(144,164,174);"/>
        </g>
        <g transform="matrix(1.02072,0,0,0.81202,-2.59842,-0.33282)">
            <path d="M119.963,20.905C119.963,14.842 116.047,9.92 111.224,9.92L18.852,9.92C14.028,9.92 10.113,14.842 10.113,20.905L10.113,108.785C10.113,114.848 14.028,119.77 18.852,119.77L111.224,119.77C116.047,119.77 119.963,114.848 119.963,108.785L119.963,20.905Z" style="fill:rgb(207,216,220);"/>
            <path d="M120.78,20.905C120.78,14.276 116.498,8.894 111.224,8.894L18.852,8.894C13.578,8.894 9.296,14.276 9.296,20.905L9.296,108.785C9.296,115.415 13.578,120.797 18.852,120.797L111.224,120.797C116.498,120.797 120.78,115.415 120.78,108.785C120.78,108.785 120.78,20.905 120.78,20.905ZM119.963,20.905C119.963,14.842 116.047,9.92 111.224,9.92L18.852,9.92C14.028,9.92 10.113,14.842 10.113,20.905L10.113,108.785C10.113,114.848 14.028,119.77 18.852,119.77L111.224,119.77C116.047,119.77 119.963,114.848 119.963,108.785L119.963,20.905Z" style="fill:rgb(144,164,174);"/>
        </g>
        <g id="Refresh" transform="matrix(0.432633,-3.75742e-17,-2.95876e-17,0.461475,-327.995,-85.534)">
            <g transform="matrix(2.40941,1.96179e-16,1.5448e-16,2.25882,55.7176,198.776)">
                <path d="M372.123,48.247C372.116,48.654 372.1,49.062 372.069,49.469C372.008,50.269 371.897,51.065 371.736,51.851C371.205,54.443 370.127,56.914 368.593,59.07C366.95,61.381 364.793,63.318 362.318,64.702C359.982,66.009 357.376,66.812 354.711,67.049C352.225,67.27 349.699,67.006 347.315,66.264C345.027,65.552 342.88,64.403 341.014,62.9C339.225,61.458 337.698,59.696 336.528,57.718C335.496,55.973 334.745,54.065 334.313,52.084C333.917,50.265 333.789,48.388 333.931,46.531C334.075,44.634 334.505,42.76 335.203,40.989C335.995,38.983 337.13,37.116 338.541,35.486C339.996,33.806 341.743,32.382 343.682,31.298C345.595,30.228 347.692,29.492 349.854,29.133C350.57,29.014 351.293,28.937 352.018,28.9C352.341,28.883 352.663,28.877 352.987,28.875L353.013,33.125C352.814,33.126 352.815,33.126 352.615,33.13C352.424,33.136 352.425,33.136 352.233,33.144C351.422,33.191 350.616,33.292 349.821,33.466C348.166,33.827 346.576,34.475 345.139,35.373C343.672,36.289 342.367,37.461 341.298,38.82C340.259,40.142 339.446,41.639 338.907,43.232C338.428,44.643 338.168,46.126 338.13,47.615C338.095,48.995 338.249,50.38 338.594,51.717C338.97,53.179 339.573,54.581 340.373,55.861C341.32,57.379 342.542,58.723 343.962,59.811C345.393,60.909 347.024,61.744 348.754,62.259C350.617,62.814 352.588,62.995 354.522,62.798C356.587,62.588 358.6,61.939 360.399,60.904C362.314,59.803 363.975,58.275 365.233,56.46C366.406,54.769 367.221,52.837 367.609,50.816C367.726,50.202 367.805,49.58 367.845,48.956C367.865,48.636 367.873,48.315 367.875,47.993L367.875,46.938L372.125,46.938C372.125,47.374 372.126,47.81 372.123,48.247Z" style="fill:rgb(84,110,122);fill-rule:nonzero;"/>
            </g>
            <g transform="matrix(2.56,2.0844e-16,1.64135e-16,2.4,1.95194e-13,194.4)">
                <path d="M354,41L354,22L370,29.5L354,41Z" style="fill:rgb(84,110,122);"/>
            </g>
        </g>
        <g transform="matrix(0.497188,0,0,0.497188,31.7187,23.7889)">
            <g transform="matrix(1.21638,0,0,1.21638,45.3773,45.412)">
                <path d="M59.719,4.906C60.149,10.752 59.435,15.741 57.524,19.832C37.146,54.28 25.839,61.077 24.6,85.679C24.858,107.294 42.05,122.302 65.425,122.114C86.608,121.944 103.513,105.424 103.268,84.103C103.021,62.691 98.387,53.745 90.667,43.537C87.678,52.709 84.364,56.679 80.79,56.486C83.853,45.382 82.057,35.25 79.253,25.319C75.204,16.052 68.45,9.49 59.719,4.906Z" style="fill:rgb(247,143,143);"/>
                <g transform="matrix(1,0,0,1,0.658988,-4.263)">
                    <path d="M63.882,122.32C49.68,122.226 40.241,115.332 40.147,104.249C40.017,88.923 53.23,83.459 63.522,68.917C65.081,65.321 64.931,61.156 63.612,56.601C75.544,66.358 86.734,80.991 87.436,97.237C88.03,110.952 77.237,122.409 63.882,122.32Z" style="fill:rgb(255,238,163);"/>
                    <path d="M63.882,122.32C49.68,122.226 40.241,115.332 40.147,104.249C40.017,88.923 53.23,83.459 63.522,68.917C65.081,65.321 64.931,61.156 63.612,56.601C75.544,66.358 86.734,80.991 87.436,97.237C88.03,110.952 77.237,122.409 63.882,122.32ZM63.893,120.667C50.785,120.579 41.887,114.464 41.801,104.235C41.74,97.04 44.863,92.182 49.157,87.393C53.768,82.252 59.684,77.202 64.872,69.873C64.938,69.779 64.994,69.68 65.039,69.575C66.166,66.976 66.502,64.104 66.182,61.017C76.339,70.349 85.174,83.183 85.785,97.308C86.336,110.068 76.319,120.749 63.893,120.667L63.893,120.667Z" style="fill:rgb(255,238,163);"/>
                </g>
                <path d="M59.719,4.906C60.149,10.752 59.435,15.741 57.524,19.832C37.146,54.28 25.839,61.077 24.6,85.679C24.858,107.294 42.05,122.302 65.425,122.114C86.608,121.944 103.513,105.424 103.268,84.103C103.021,62.691 98.387,53.745 90.667,43.537C87.678,52.709 84.364,56.679 80.79,56.486C83.853,45.382 82.057,35.25 79.253,25.319C75.204,16.052 68.45,9.49 59.719,4.906Z" style="fill:rgb(247,143,143);fill-opacity:0;"/>
                <path d="M59.719,4.906C60.149,10.752 59.435,15.741 57.524,19.832C37.146,54.28 25.839,61.077 24.6,85.679C24.858,107.294 42.05,122.302 65.425,122.114C86.608,121.944 103.513,105.424 103.268,84.103C103.021,62.691 98.387,53.745 90.667,43.537C87.678,52.709 84.364,56.679 80.79,56.486C83.853,45.382 82.057,35.25 79.253,25.319C75.204,16.052 68.45,9.49 59.719,4.906ZM61.209,7.31C68.602,11.652 74.363,17.625 77.948,25.774C80.676,35.451 82.442,45.313 79.461,56.12C79.351,56.522 79.428,56.953 79.672,57.292C79.915,57.63 80.299,57.84 80.716,57.862C82.495,57.958 84.246,57.279 85.917,55.635C87.714,53.865 89.467,50.863 91.11,46.454C97.742,55.656 101.665,64.608 101.89,84.119C102.127,104.664 85.826,120.573 65.414,120.736C42.893,120.917 26.263,106.542 25.979,85.73C26.589,73.7 29.661,66.033 35.062,57.164C40.593,48.08 48.517,37.764 58.71,20.533C58.732,20.495 58.753,20.455 58.772,20.415C60.493,16.733 61.304,12.357 61.21,7.311L61.209,7.31Z" style="fill:rgb(206,86,86);"/>
            </g>
        </g>
    </g>
</svg>
